<svg width="760" height="480" viewBox="0 0 760 480" fill="none" xmlns="http://www.w3.org/2000/svg">
  <rect width="760" height="480" rx="20" fill="#F8FAFF"/>
  <rect x="26" y="24" width="708" height="58" rx="12" fill="#1E2A78"/>
  <circle cx="56" cy="53" r="8" fill="#18B6A4"/>
  <rect x="76" y="46" width="190" height="14" rx="7" fill="#D9E3FF"/>
  <rect x="542" y="44" width="172" height="18" rx="9" fill="#3B82F6"/>

  <rect x="26" y="100" width="220" height="354" rx="14" fill="#FFFFFF" stroke="#E2E8F0"/>
  <rect x="44" y="124" width="184" height="14" rx="7" fill="#D9E3FF"/>
  <rect x="44" y="150" width="130" height="10" rx="5" fill="#C6D4FF"/>
  <rect x="44" y="178" width="184" height="72" rx="10" fill="#EEF3FF"/>
  <rect x="44" y="268" width="184" height="72" rx="10" fill="#EBFBF9"/>
  <rect x="44" y="358" width="184" height="72" rx="10" fill="#EEF3FF"/>

  <rect x="266" y="100" width="468" height="228" rx="14" fill="#FFFFFF" stroke="#E2E8F0"/>
  <rect x="286" y="124" width="162" height="14" rx="7" fill="#D9E3FF"/>
  <rect x="286" y="150" width="264" height="10" rx="5" fill="#CBD5E1"/>
  <rect x="286" y="178" width="428" height="130" rx="10" fill="#F8FAFC"/>

  <rect x="286" y="346" width="220" height="108" rx="14" fill="#FFFFFF" stroke="#E2E8F0"/>
  <rect x="526" y="346" width="208" height="108" rx="14" fill="#FFFFFF" stroke="#E2E8F0"/>
  <rect x="302" y="366" width="134" height="12" rx="6" fill="#D9E3FF"/>
  <rect x="302" y="390" width="176" height="10" rx="5" fill="#CBD5E1"/>
  <rect x="546" y="366" width="120" height="12" rx="6" fill="#BFF0EA"/>
  <rect x="546" y="390" width="152" height="10" rx="5" fill="#CBD5E1"/>
</svg>
